<svg xmlns="http://www.w3.org/2000/svg" xmlns:xlink="http://www.w3.org/1999/xlink" version="1.1" width="1000" height="1000" viewBox="0 0 1000 1000" xml:space="preserve">
<desc>Created with Fabric.js 3.5.0</desc>
<defs>
</defs>
<rect x="0" y="0" width="100%" height="100%" fill="rgba(255,255,255,0)"/>
<g transform="matrix(6.3894 0 0 6.3894 474.6875 500.009)" id="367814">
<g style="" vector-effect="non-scaling-stroke">
		<g transform="matrix(0.3057 0 0 0.3057 8.2603 0.106)">
<path style="stroke: none; stroke-width: 1; stroke-dasharray: none; stroke-linecap: butt; stroke-dashoffset: 0; stroke-linejoin: miter; stroke-miterlimit: 4; is-custom-font: none; font-file-url: none; fill: rgb(215,20,60); fill-rule: nonzero; opacity: 1;" transform=" translate(-201, -246.5)" d="m 0 0 h 388 l 15 1 l 1 1 v 67 l -1 3 l -3 1 l -22 1 l -124 1 l -12 1 l -1 128 v 263 l -1 24 l -1 1 l -20 1 h -45 l -17 -1 l -1 -1 l -1 -17 v -36 l 1 -101 l 2 -3 l 15 -1 l 34 -1 l 6 -3 l 3 -5 v -8 l -3 -9 l -1 -5 l 4 -3 l 1 -13 l 2 -2 v -8 l -4 -10 v -7 l 10 -4 l 9 -4 l 1 -4 l -6 -10 l -9 -10 l -5 -5 v -2 l -3 -1 l -7 -9 l -1 -9 v -26 l -4 -20 l -5 -16 l -7 -16 l -11 -20 l -9 -12 l -11 -13 l -7 -3 l -149 -1 l -2 -1 l -1 -4 v -65 z" stroke-linecap="round"/>
</g>
		<g transform="matrix(0.3057 0 0 0.3057 -28.2713 13.5529)">
<path style="stroke: none; stroke-width: 1; stroke-dasharray: none; stroke-linecap: butt; stroke-dashoffset: 0; stroke-linejoin: miter; stroke-miterlimit: 4; is-custom-font: none; font-file-url: none; fill: rgb(215,20,60); fill-rule: nonzero; opacity: 1;" transform=" translate(68.5, -181.5)" d="m 0 0 h 2 l 1 6 v 16 l -4 24 l -7 21 l -9 17 l -9 13 l -9 12 l -9 11 l -18 20 l -12 14 l -13 16 l -7 11 l -9 15 l -6 13 l -5 17 l -2 11 v 26 l 4 19 l 6 15 l 7 13 l 11 13 l 8 8 l 11 8 l 16 8 l 14 5 l 16 4 h 14 l 11 -1 l -2 2 l -36 6 l -13 -1 l -20 -5 l -15 -6 l -12 -8 l -10 -9 l -9 -10 l -9 -14 l -7 -14 l -6 -21 l -3 -17 v -22 l 5 -25 l 6 -16 l 8 -14 l 12 -16 l 6 -7 h 2 l 2 -4 l 13 -14 l 8 -7 l 17 -16 l 8 -8 l 10 -13 l 8 -10 l 6 -5 l 9 -13 l 7 -12 l 7 -16 l 5 -19 l 1 -6 z" stroke-linecap="round"/>
</g>
		<g transform="matrix(0.3057 0 0 0.3057 -39.1213 -22.3666)">
<path style="stroke: none; stroke-width: 1; stroke-dasharray: none; stroke-linecap: butt; stroke-dashoffset: 0; stroke-linejoin: miter; stroke-miterlimit: 4; is-custom-font: none; font-file-url: none; fill: rgb(215,20,60); fill-rule: nonzero; opacity: 1;" transform=" translate(101, -72)" d="m 0 0 l 2 1 v 8 l -6 27 l -7 20 l -8 16 l -7 12 l -9 12 l -10 10 l -16 11 l -21 12 l -10 5 l -21 7 l -12 3 h -23 l -15 -3 l -13 -6 l -9 -6 l -5 -4 l -8 -10 l -5 -12 l -1 -4 v -19 l 5 -12 l 7 -10 l 4 -5 l 14 -9 l 12 -4 l 14 -1 l 13 2 l 10 5 l 7 6 l 7 11 l 1 3 v 13 l -3 8 l -6 8 l -8 5 l -4 1 h -13 l -6 -3 l -5 -5 l -4 -9 v -5 h 2 l 5 12 l 5 5 l 5 2 l 11 -1 l 9 -5 l 4 -6 l 3 -10 v -7 l -4 -10 l -5 -7 l -8 -5 l -10 -3 h -13 l -10 3 l -10 6 l -9 10 l -6 13 l -1 12 l 2 12 l 5 10 l 8 7 l 15 7 l 16 3 h 28 l 19 -4 l 16 -6 l 15 -9 l 14 -10 l 13 -12 l 9 -12 l 8 -13 l 10 -19 l 9 -27 z" stroke-linecap="round"/>
</g>
		<g transform="matrix(0.3057 0 0 0.3057 -26.4385 -27.5637)">
<path style="stroke: none; stroke-width: 1; stroke-dasharray: none; stroke-linecap: butt; stroke-dashoffset: 0; stroke-linejoin: miter; stroke-miterlimit: 4; is-custom-font: none; font-file-url: none; fill: rgb(215,20,60); fill-rule: nonzero; opacity: 1;" transform=" translate(31.5, -45)" d="m 0 0 l 2 1 l -12 8 l -12 11 l -7 9 l -5 12 l -1 3 l 4 -2 l 7 -8 l 4 -5 l 10 -6 l 13 -5 l 6 -1 l -2 11 l -6 16 l -9 16 l -4 5 l -13 10 l -10 6 l -14 5 l -19 4 l -4 -1 l 8 -9 l 12 -22 l 8 -16 l 7 -12 l 10 -11 l 17 -13 z" stroke-linecap="round"/>
</g>
		<g transform="matrix(0.3057 0 0 0.3057 -50.8918 9.8794)">
<path style="stroke: none; stroke-width: 1; stroke-dasharray: none; stroke-linecap: butt; stroke-dashoffset: 0; stroke-linejoin: miter; stroke-miterlimit: 4; is-custom-font: none; font-file-url: none; fill: rgb(215,20,60); fill-rule: nonzero; opacity: 1;" transform=" translate(20.5, -27.5)" d="m 0 0 h 2 l -2 8 l -4 8 l -8 10 l -6 6 l 5 -1 l 10 -6 l 7 -6 h 2 l 2 -4 l 6 -8 l 1 2 l -6 9 l -9 9 l -13 8 l -31 14 l -9 6 l -3 -1 l 5 -16 l 7 -12 l 8 -9 l 13 -8 l 13 -6 l 7 -1 h 2 z" stroke-linecap="round"/>
</g>
		<g transform="matrix(0.3057 0 0 0.3057 -37.4434 -24.2024)">
<path style="stroke: none; stroke-width: 1; stroke-dasharray: none; stroke-linecap: butt; stroke-dashoffset: 0; stroke-linejoin: miter; stroke-miterlimit: 4; is-custom-font: none; font-file-url: none; fill: rgb(215,20,60); fill-rule: nonzero; opacity: 1;" transform=" translate(6.5, -19)" d="m 0 0 l 5 1 v 14 l -4 10 l -5 6 l -11 7 l -3 -1 l 3 -7 l 2 -16 l 4 -10 l 2 -2 z" stroke-linecap="round"/>
</g>
		<g transform="matrix(0.3057 0 0 0.3057 -15.8945 -41.4731)">
<path style="stroke: none; stroke-width: 1; stroke-dasharray: none; stroke-linecap: butt; stroke-dashoffset: 0; stroke-linejoin: miter; stroke-miterlimit: 4; is-custom-font: none; font-file-url: none; fill: rgb(215,20,60); fill-rule: nonzero; opacity: 1;" transform=" translate(-1, -0.5)" d="m 0 0 l 2 1 z" stroke-linecap="round"/>
</g>
		<g transform="matrix(0.3057 0 0 0.3057 -15.5888 -41.9316)">
<path style="stroke: none; stroke-width: 1; stroke-dasharray: none; stroke-linecap: butt; stroke-dashoffset: 0; stroke-linejoin: miter; stroke-miterlimit: 4; is-custom-font: none; font-file-url: none; fill: rgb(215,20,60); fill-rule: nonzero; opacity: 1;" transform=" translate(0, 0)" d="m 0 0" stroke-linecap="round"/>
</g>
		<g transform="matrix(0.3057 0 0 0.3057 -7.336 -42.8486)">
<path style="stroke: none; stroke-width: 1; stroke-dasharray: none; stroke-linecap: butt; stroke-dashoffset: 0; stroke-linejoin: miter; stroke-miterlimit: 4; is-custom-font: none; font-file-url: none; fill: rgb(215,20,60); fill-rule: nonzero; opacity: 1;" transform=" translate(0, 0)" d="m 0 0" stroke-linecap="round"/>
</g>
</g>
</g>
</svg>